<svg xmlns="http://www.w3.org/2000/svg" viewBox="0 0 426 130" width="426" height="130" role="img" aria-label="Xovera">
  <defs>
    <linearGradient id="ig" x1="0" y1="15" x2="100" y2="115" gradientUnits="userSpaceOnUse">
      <stop offset="0" stop-color="#ef4136"></stop><stop offset="1" stop-color="#fbb040"></stop>
    </linearGradient>
    <linearGradient id="tg" x1="128" y1="20" x2="400" y2="110" gradientUnits="userSpaceOnUse">
      <stop offset="0" stop-color="#ef4136"></stop><stop offset="1" stop-color="#fbb040"></stop>
    </linearGradient>
  </defs>
  
  <g transform="translate(0,0)">
    <g transform="translate(0,15)" fill="url(#ig)">
      <path d="M50 8.332c-23 0-41.668 18.668-41.668 41.668s18.668 41.668 41.668 41.668 41.668-18.668 41.668-41.668-18.668-41.668-41.668-41.668zm0 77.086c-19.543 0-35.418-15.875-35.418-35.418s15.875-35.418 35.418-35.418 35.418 15.875 35.418 35.418-15.875 35.418-35.418 35.418z"></path>
      <path d="M62.5 35.293c-1.707 0-3.125 1.418-3.125 3.125v23.168c0 1.707 1.418 3.125 3.125 3.125s3.125-1.418 3.125-3.125v-23.168c0-1.707-1.418-3.125-3.125-3.125z"></path>
      <path d="M75 41.082c-1.707 0-3.125 1.418-3.125 3.125v11.582c0 1.707 1.418 3.125 3.125 3.125s3.125-1.418 3.125-3.125v-11.582c0-1.707-1.418-3.125-3.125-3.125z"></path>
      <path d="M50 26.043c-1.707 0-3.125 1.418-3.125 3.125v41.668c0 1.707 1.418 3.125 3.125 3.125s3.125-1.418 3.125-3.125v-41.668c0-1.707-1.418-3.125-3.125-3.125z"></path>
      <path d="M25 41.082c-1.707 0-3.125 1.418-3.125 3.125v11.582c0 1.707 1.418 3.125 3.125 3.125s3.125-1.418 3.125-3.125v-11.582c0-1.707-1.418-3.125-3.125-3.125z"></path>
      <path d="M37.5 35.293c-1.707 0-3.125 1.418-3.125 3.125v23.168c0 1.707 1.418 3.125 3.125 3.125s3.125-1.418 3.125-3.125v-23.168c0-1.707-1.418-3.125-3.125-3.125z"></path>
    </g>
    <text x="128" y="66" font-family="Geist, system-ui, -apple-system, Segoe UI, Roboto, sans-serif" font-size="92" font-weight="600" letter-spacing="-3" dominant-baseline="central" fill="url(#tg)">Xovera</text>
  </g>
</svg>